#!OML:ASF H:\LiuWeirdWalks\Patient Classification 1\Patient 1\Session 1\male.ASF
:FULLY-SPECIFIED
:DEGREES
1293
root 1.47394 18.094 34.888 1.12022 4.5685 -5.30191
lowerback 10.5127 -3.16208 -5.3247
upperback -0.297002 -4.6883 3.1022
thorax -5.51746 -2.12182 6.97573
lowerneck -17.7225 2.7645 4.89386
upperneck 16.5757 3.18828 -3.48423
head 8.19814 1.46468 -1.58016
rclavicle 4.16951e-014 1.47101e-014
rhumerus -32.9326 -16.8065 -18.8353
rradius 34.39
rwrist -10.6246
rhand -19.735 2.05488
rfingers 7.12502
rthumb 6.59569 -27.8224
lclavicle 4.16951e-014 1.47101e-014
lhumerus -47.8316 33.9358 31.157
lradius 48.1137
lwrist 6.76311
lhand -19.2246 2.20252
lfingers 7.12502
lthumb 7.08839 32.0638
rfemur -13.1063 -3.65101 20.3049
rtibia 25.4703
rfoot -3.11896 -18.3699
rtoes -3.63053
lfemur -2.86245 -1.9425 -5.55237
ltibia 33.7509
lfoot -5.74629 9.74749
ltoes -21.8203
1294
root 1.44384 18.1026 34.9301 1.13258 4.70117 -5.16099
lowerback 10.4585 -3.15182 -5.24247
upperback -0.348478 -4.65602 3.22034
thorax -5.54313 -2.10442 7.05009
lowerneck -17.8445 2.74694 4.85962
upperneck 16.7216 3.22378 -3.74009
head 8.2739 1.45166 -1.65576
rclavicle -5.21064e-014 2.50469e-014
rhumerus -33.228 -17.15 -19.2459
rradius 34.3664
rwrist -10.1363
rhand -19.6027 2.06686
rfingers 7.12502
rthumb 6.72336 -27.8064
lclavicle -5.21064e-014 2.50469e-014
lhumerus -48.0437 33.912 31.5043
lradius 48.2028
lwrist 6.76816
lhand -19.2875 2.15844
lfingers 7.12502
lthumb 7.0276 32.0218
rfemur -12.8144 -3.62937 20.2644
rtibia 25.2349
rfoot -3.20322 -18.5665
rtoes -3.55629
lfemur -3.3053 -1.58821 -5.40908
ltibia 34.5267
lfoot -5.22775 8.89852
ltoes -22.2128
1295
root 1.41304 18.1096 34.9714 1.11579 4.8109 -5.11697
lowerback 10.4162 -3.14272 -5.09335
upperback -0.386762 -4.61605 3.36112
thorax -5.56606 -2.08533 7.11004
lowerneck -17.9441 2.743 4.85861
upperneck 16.8521 3.27221 -4.00341
head 8.34217 1.44596 -1.73811
rclavicle 4.01794e-014 -3.10104e-014
rhumerus -33.5164 -17.5574 -19.6585
rradius 34.3413
rwrist -9.59085
rhand -19.4515 2.0649
rfingers 7.12502
rthumb 6.86936 -27.8037
lclavicle 4.01794e-014 -3.10104e-014
lhumerus -48.2769 33.8806 31.825
lradius 48.307
lwrist 6.7777
lhand -19.3417 2.10543
lfingers 7.12502
lthumb 6.97527 31.9705
rfemur -12.5125 -3.5364 20.3378
rtibia 25.0162
rfoot -3.27492 -18.8145
rtoes -3.49651
lfemur -3.75479 -1.20719 -5.14793
ltibia 35.3432
lfoot -4.67601 8.01712
ltoes -22.5561
1296
root 1.38376 18.1159 35.011 1.11047 4.91582 -5.02092
lowerback 10.3678 -3.12865 -4.97676
upperback -0.418839 -4.57486 3.47238
thorax -5.57908 -2.06564 7.15582
lowerneck -18.0555 2.74239 4.87192
upperneck 16.973 3.32012 -4.26116
head 8.40975 1.44107 -1.82115
rclavicle -6.69904e-014 -1.6201e-014
rhumerus -33.7839 -18.0241 -20.0809
rradius 34.2678
rwrist -9.13972
rhand -19.3682 2.07017
rfingers 7.12502
rthumb 6.94972 -27.7958
lclavicle -6.69904e-014 -1.6201e-014
lhumerus -48.4752 33.8511 32.1411
lradius 48.3921
lwrist 6.75504
lhand -19.3599 2.03911
lfingers 7.12502
lthumb 6.95776 31.9048
rfemur -12.2459 -3.4566 20.3511
rtibia 24.8352
rfoot -3.34836 -19.0473
rtoes -3.44731
lfemur -4.23538 -0.843439 -4.95603
ltibia 36.1799
lfoot -4.11245 7.13438
ltoes -22.8192
1297
root 1.35588 18.1211 35.049 1.10621 5.02229 -4.89207
lowerback 10.3251 -3.11371 -4.87813
upperback -0.447157 -4.53619 3.56151
thorax -5.59135 -2.04705 7.18863
lowerneck -18.1616 2.74264 4.89069
upperneck 17.0747 3.36653 -4.51165
head 8.47011 1.43637 -1.90303
rclavicle 1.0548e-014 9.0447e-015
rhumerus -34.0232 -18.4303 -20.5473
rradius 34.1522
rwrist -8.8626
rhand -19.3955 2.08609
rfingers 7.12502
rthumb 6.9234 -27.7807
lclavicle 1.0548e-014 9.0447e-015
lhumerus -48.6593 33.8104 32.4515
lradius 48.4795
lwrist 6.72308
lhand -19.3431 2.00367
lfingers 7.12502
lthumb 6.974 31.8688
rfemur -12.0081 -3.39214 20.3242
rtibia 24.7037
rfoot -3.43485 -19.2694
rtoes -3.39977
lfemur -4.72851 -0.497897 -4.81238
ltibia 37.0229
lfoot -3.5423 6.24349
ltoes -22.9602
1298
root 1.33007 18.1261 35.0853 1.10536 5.1407 -4.67482
lowerback 10.2976 -3.10082 -4.84916
upperback -0.470883 -4.51136 3.6152
thorax -5.6028 -2.03382 7.22584
lowerneck -18.271 2.75149 4.93302
upperneck 17.1426 3.42028 -4.77523
head 8.52093 1.4351 -1.99231
rclavicle -7.34882e-014 3.79679e-014
rhumerus -34.2174 -18.8089 -21.0552
rradius 33.9838
rwrist -8.73436
rhand -19.5293 2.10425
rfingers 7.12502
rthumb 6.79426 -27.7667
lclavicle -7.34882e-014 3.79679e-014
lhumerus -48.8293 33.7661 32.7581
lradius 48.5611
lwrist 6.68185
lhand -19.3157 1.98596
lfingers 7.12502
lthumb 7.00043 31.8502
rfemur -11.8056 -3.36896 20.1913
rtibia 24.6426
rfoot -3.55279 -19.4672
rtoes -3.35227
lfemur -5.22424 -0.203174 -4.78969
ltibia 37.8567
lfoot -2.99807 5.36287
ltoes -22.9058
1299
root 1.30701 18.131 35.1198 1.11561 5.28099 -4.38091
lowerback 10.2871 -3.1038 -4.89211
upperback -0.510784 -4.51862 3.64572
thorax -5.63251 -2.03338 7.28564
lowerneck -18.3162 2.7724 4.99652
upperneck 17.1792 3.48907 -5.04907
head 8.55151 1.44203 -2.087
rclavicle -1.66669e-014 -6.83322e-015
rhumerus -34.3535 -18.9447 -21.667
rradius 33.8143
rwrist -8.87713
rhand -19.7732 2.12305
rfingers 7.12502
rthumb 6.55872 -27.7554
lclavicle -1.66669e-014 -6.83322e-015
lhumerus -49.0432 33.6995 33.0288
lradius 48.6405
lwrist 6.64675
lhand -19.2962 1.99484
lfingers 7.12502
lthumb 7.01926 31.8585
rfemur -11.6405 -3.40565 19.9623
rtibia 24.6425
rfoot -3.69756 -19.6323
rtoes -3.30408
lfemur -5.732 0.0206795 -4.88252
ltibia 38.6808
lfoot -2.55038 4.51359
ltoes -22.672
1300
root 1.28602 18.1354 35.1523 1.13354 5.44829 -4.04612
lowerback 10.2832 -3.11961 -4.97038
upperback -0.547583 -4.5484 3.66224
thorax -5.65752 -2.04345 7.35376
lowerneck -18.3739 2.79935 5.0666
upperneck 17.208 3.56327 -5.32091
head 8.58238 1.45191 -2.18142
rclavicle 4.37947e-015 -2.60408e-014
rhumerus -34.4796 -19.0769 -22.3006
rradius 33.6687
rwrist -8.99783
rhand -20.0297 2.13312
rfingers 7.12502
rthumb 6.3111 -27.7529
lclavicle 4.37947e-015 -2.60408e-014
lhumerus -49.2554 33.6418 33.2961
lradius 48.71
lwrist 6.62318
lhand -19.3055 2.00867
lfingers 7.12502
lthumb 7.01022 31.8726
rfemur -11.5005 -3.47568 19.6796
rtibia 24.6802
rfoot -3.85993 -19.7944
rtoes -3.243
lfemur -6.25615 0.181525 -5.04898
ltibia 39.503
lfoot -2.23064 3.69292
ltoes -22.1871
1301
root 1.26706 18.139 35.1832 1.13992 5.63818 -3.73969
lowerback 10.2949 -3.14972 -5.02076
upperback -0.576023 -4.59391 3.68662
thorax -5.68134 -2.06226 7.41727
lowerneck -18.4389 2.83557 5.14399
upperneck 17.237 3.64791 -5.59196
head 8.61571 1.46704 -2.2755
rclavicle 3.30107e-014 -5.1684e-015
rhumerus -34.5914 -19.1922 -22.9461
rradius 33.5346
rwrist -9.0273
rhand -20.2364 2.13479
rfingers 7.12502
rthumb 6.11159 -27.7571
lclavicle 3.30107e-014 -5.1684e-015
lhumerus -49.474 33.6016 33.558
lradius 48.7697
lwrist 6.59505
lhand -19.3395 2.04641
lfingers 7.12502
lthumb 6.97748 31.9114
rfemur -11.3618 -3.55765 19.4201
rtibia 24.7344
rfoot -4.028 -19.9723
rtoes -3.1733
lfemur -6.7809 0.279705 -5.2113
ltibia 40.327
lfoot -2.09316 2.93413
ltoes -21.5653
